<svg xmlns="http://www.w3.org/2000/svg" width="303" height="81" viewBox="0 0 303 81">
    <g fill="#C58B5A" fill-rule="evenodd">
        <path d="M168.104 60.743c.021.014.044.025.063.039.213.293.253.613.253.797 0 .226-.055.656-.425.995-.06.057-.115.116-.169.179L151.81 74.848V49.005l16.294 11.738zm-14.222-25.658l3.513-2.511s18.179 13.618 18.279 13.71c1.45 1.326 2.281 3.279 2.281 5.358a7.492 7.492 0 0 1-.847 3.484 20.753 20.753 0 0 1-3.283 3.096l-2.022 1.529a5.338 5.338 0 0 0-1.457-2.28c-.165-.152-16.462-11.811-16.462-11.811-1.118-1.056-1.854-2.493-2.11-4.067a7.65 7.65 0 0 1-.098-1.223c0-2.04.803-3.96 2.206-5.285zm28.442 5.424a23.747 23.747 0 0 1-1.23 7.554 10.564 10.564 0 0 0-3.666-5.27c-5.018-3.86-25.618-19.265-25.618-19.265V6.186l23.987 18.2c4.189 4.08 6.541 9.826 6.527 16.123zm3.676.01c.019-8.416-3.72-16.302-10.002-21.097L151.018.36a1.698 1.698 0 0 0-1.901-.128c-.571.328-.937.964-.977 1.667-.025.132-.042.27-.042.408v22.268c0 .673.303 1.303.81 1.678l5.18 3.858s-2.422 1.735-2.479 1.786c-2.294 2.1-3.609 5.19-3.609 8.473 0 .608.132 15.948.132 15.948-.021.124-.034.253-.034.385v22.27c0 .753.379 1.444.983 1.795.27.155.563.232.855.232.366 0 .73-.12 1.044-.357l26.91-20.418c.047-.034.09-.07.132-.11a10.764 10.764 0 0 0 2.091-2.635c3.737-4.619 5.874-10.634 5.887-16.961zM138.734 23.233l-6.737 4.495-11.712-7.468c-.023-.016-.05-.028-.073-.042a1.267 1.267 0 0 1 .195-1.788c.202-.163 18.327-12.55 18.327-12.55v17.353zm-10.446 6.97l3.761 2.4 4.302 2.741c1.587 1.327 2.494 3.248 2.494 5.29 0 2.041-.905 3.962-2.492 5.289l-4.095 2.589-12-8.043 8.835-5.895-3.672-2.457-8.803 5.873-4.95-3.323c-1.597-1.327-2.513-3.255-2.513-5.304 0-1.23.328-2.416.937-3.456.529-.9 1.286-1.655 2.164-2.244l3.8-2.553c.32.934 2.092 2.685 2.308 2.763l2.072 1.32.006-.01.485.325 7.36 4.695zm9.512 26.914l-.013.016.947.634V75.12L120.43 62.827c-.009-.006-.015-.014-.021-.02a1.266 1.266 0 0 1-.046-1.947l9.075-5.737-3.71-2.483-7.71 4.875c-.022.016-.045.034-.068.048a2.15 2.15 0 0 0-.197.141 5.33 5.33 0 0 0-1.629 2.232l-4.456-2.994c-1.597-1.327-2.513-3.256-2.513-5.305s.916-3.977 2.513-5.304l4.996-3.356 4.882 3.272.004-.004 16.25 10.872zm1.833-56.76l-30.403 20.42a2.842 2.842 0 0 0-.15.111c-2.591 2.1-4.08 5.189-4.08 8.475 0 3.286 1.489 6.375 4.08 8.475.048.038.098.075.15.11l3.8 2.552-3.8 2.552a2.014 2.014 0 0 0-.15.11c-2.591 2.1-4.08 5.189-4.08 8.475 0 3.286 1.489 6.375 4.08 8.475.048.038.098.075.15.112l30.403 20.419a2.12 2.12 0 0 0 2.144.124 2.02 2.02 0 0 0 1.112-1.792V56.701c0-.667-.336-1.29-.901-1.668l-6.024-4.036 2.76-1.745c.067-.045.134-.092.196-.143 2.593-2.1 4.08-5.188 4.08-8.474 0-3.287-1.487-6.375-4.08-8.475a2.121 2.121 0 0 0-.19-.137l-2.973-1.896 6.227-4.156a2.008 2.008 0 0 0 .905-1.672V2.025a2.02 2.02 0 0 0-1.112-1.792 2.12 2.12 0 0 0-2.144.124zM14.072 51.594H0V29h14.072v1.761H1.896v8.367H13.84v1.762H1.896v8.942h12.176v1.762zm9.415.406c-2.595 0-4.591-.78-6.188-2.574l1.031-1.321c1.032 1.32 2.928 2.405 5.19 2.405 2.695 0 4.291-1.423 4.291-3.32 0-4.471-10.146-1.965-10.146-7.825 0-2.506 2.096-4.539 5.722-4.539 2.761 0 4.59 1.084 5.755 2.405l-.965 1.254c-.931-1.288-2.661-2.168-4.79-2.168-2.495 0-4.025 1.287-4.025 2.98 0 4.1 10.146 1.593 10.146 7.893 0 2.642-1.996 4.81-6.021 4.81zm13.972 0c-2.13 0-3.16-1.321-3.16-3.557V36.791h-2.662v-1.558H34.3V30.76h1.763v4.472h3.26v1.558h-3.26v11.381c0 1.321.532 2.236 1.663 2.236a2.49 2.49 0 0 0 1.797-.78l.665 1.356c-.632.61-1.397 1.016-2.728 1.016zm17.598-.406h-1.73v-1.931C51.898 51.255 50.102 52 47.873 52c-2.762 0-5.622-1.93-5.622-5.454 0-3.556 2.827-5.42 5.622-5.42 2.229 0 4.058.746 5.456 2.338v-3.32c0-2.439-1.93-3.76-4.325-3.76-1.996 0-3.56.712-5.024 2.405l-.964-1.219c1.663-1.83 3.526-2.744 6.187-2.744 3.26 0 5.855 1.592 5.855 5.25v11.518zm-6.587-.983c1.93 0 3.726-.745 4.858-2.235v-3.591c-1.132-1.49-2.928-2.27-4.858-2.27-2.66 0-4.39 1.728-4.39 4.065 0 2.304 1.73 4.031 4.39 4.031zM63.94 52c-2.13 0-3.16-1.321-3.16-3.557V36.791h-2.662v-1.558h2.661V30.76h1.764v4.472h3.26v1.558h-3.26v11.381c0 1.321.532 2.236 1.663 2.236a2.49 2.49 0 0 0 1.796-.78l.666 1.356C66.036 51.594 65.27 52 63.94 52zm12.774 0c-4.69 0-8.05-3.557-8.05-8.604 0-4.742 3.293-8.57 7.751-8.57 4.89 0 7.585 3.963 7.585 8.672v.474H70.56c.166 3.557 2.495 6.504 6.288 6.504 2.029 0 3.892-.78 5.256-2.27l.898 1.152C81.405 51.052 79.376 52 76.714 52zm5.523-9.417c-.033-2.777-1.83-6.232-5.855-6.232-3.793 0-5.689 3.387-5.822 6.232h11.677zM214.105 50.64H207V29h7.105c6.905 0 11.241 4.9 11.241 10.837 0 6.002-4.336 10.804-11.241 10.804zm0-1.686c5.87 0 9.24-4.056 9.24-9.117 0-5.062-3.336-9.15-9.24-9.15H208.9v18.267h5.204zm23.05 2.076c-4.704 0-8.073-3.407-8.073-8.24 0-4.543 3.302-8.21 7.772-8.21 4.903 0 7.605 3.797 7.605 8.306v.455h-13.476c.167 3.406 2.502 6.23 6.305 6.23 2.034 0 3.902-.747 5.27-2.175l.9 1.103c-1.6 1.623-3.635 2.531-6.304 2.531zm5.536-9.02c-.033-2.66-1.834-5.97-5.87-5.97-3.803 0-5.704 3.245-5.838 5.97h11.708zm11.041 9.02c-2.601 0-4.603-.746-6.204-2.466l1.034-1.265c1.034 1.265 2.936 2.304 5.204 2.304 2.702 0 4.303-1.363 4.303-3.18 0-4.283-10.174-1.882-10.174-7.495 0-2.4 2.102-4.347 5.737-4.347 2.769 0 4.604 1.038 5.771 2.303l-.967 1.2c-.934-1.232-2.669-2.076-4.804-2.076-2.501 0-4.036 1.233-4.036 2.855 0 3.926 10.174 1.525 10.174 7.56 0 2.53-2.001 4.607-6.038 4.607zm11.375-18.526c-.7 0-1.334-.584-1.334-1.298 0-.714.634-1.265 1.334-1.265.734 0 1.334.551 1.334 1.265 0 .714-.6 1.298-1.334 1.298zm.867 18.137h-1.734V34.97h1.734v15.67zM277.75 57c-2.702 0-4.436-.487-6.338-2.368l1.001-1.298c1.401 1.622 2.935 2.206 5.337 2.206 2.936 0 5.504-1.428 5.504-5.029v-2.466c-1.134 1.59-3.202 2.92-5.604 2.92-4.27 0-7.205-3.147-7.205-8.176 0-4.964 2.935-8.208 7.205-8.208 2.302 0 4.303 1.135 5.604 2.92V34.97h1.768v15.509c0 4.801-3.336 6.521-7.272 6.521zm.2-7.56c2.235 0 4.37-1.33 5.304-2.855v-7.624c-.934-1.525-3.069-2.856-5.304-2.856-3.569 0-5.637 2.888-5.637 6.684 0 3.796 2.068 6.651 5.637 6.651zM303 50.64h-1.735V40.032c0-3.017-1.567-3.926-3.902-3.926-2.068 0-4.203 1.266-5.237 2.693v11.843h-1.735V34.97h1.735v2.368c1.167-1.362 3.469-2.757 5.804-2.757 3.269 0 5.07 1.557 5.07 5.093v10.967z"/>
    </g>
</svg>
